<?xml version="1.0" standalone="no"?>
<!DOCTYPE svg PUBLIC "-//W3C//DTD SVG 20010904//EN"
 "http://www.w3.org/TR/2001/REC-SVG-20010904/DTD/svg10.dtd">
<svg version="1.0" xmlns="http://www.w3.org/2000/svg"
 width="1345.000000pt" height="1344.000000pt" viewBox="0 0 1345.000000 1344.000000"
 preserveAspectRatio="xMidYMid meet">
<metadata>
Created by Pramod Devireddy using Photoshop and online tools
</metadata>
<g transform="translate(0.000000,1344.000000) scale(0.100000,-0.100000)"
fill="#000000" stroke="none">
<path fill="#E58A2E" d="M4463 12642 c-101 -36 -180 -108 -231 -212 -25 -50 -27 -65 -27 -170
0 -107 2 -119 29 -175 56 -114 181 -208 295 -222 l48 -5 314 -840 c173 -462
315 -844 317 -848 2 -5 -77 -49 -175 -99 -269 -136 -476 -271 -691 -450 -57
-47 -116 -96 -131 -108 l-27 -22 -253 253 -254 254 13 61 c35 166 -37 340
-178 429 -145 93 -357 78 -480 -34 -102 -91 -149 -207 -139 -342 17 -230 234
-403 459 -365 35 6 70 14 78 17 10 4 94 -73 269 -248 l254 -254 -19 -25 c-10
-13 -58 -71 -106 -128 -156 -187 -307 -411 -417 -620 l-57 -107 -819 374 -819
373 -12 68 c-36 217 -208 353 -430 341 -109 -6 -190 -44 -267 -128 -78 -84
-101 -147 -102 -275 0 -92 3 -105 32 -167 92 -195 315 -284 516 -208 27 10 63
30 82 44 18 14 37 26 42 26 4 0 376 -167 826 -372 622 -284 817 -377 813 -388
-2 -8 -23 -69 -46 -135 -103 -297 -169 -625 -195 -967 l-7 -88 -359 0 -358 0
-17 32 c-31 60 -121 144 -187 174 -56 26 -72 29 -172 29 -100 0 -116 -3 -173
-29 -81 -38 -171 -131 -203 -213 -33 -82 -33 -224 0 -306 32 -82 122 -175 203
-213 57 -26 73 -29 173 -29 100 0 116 3 172 29 66 30 156 114 187 174 l17 32
358 0 359 0 7 -87 c23 -307 76 -594 162 -871 14 -45 23 -85 20 -88 -2 -3 -382
-146 -843 -318 l-837 -313 -46 35 c-85 64 -123 76 -246 77 -103 0 -114 -2
-177 -32 -85 -40 -151 -106 -191 -191 -30 -63 -32 -74 -32 -177 0 -101 2 -115
29 -170 121 -247 445 -307 646 -119 58 54 110 151 118 220 4 40 9 48 37 59 64
27 1668 625 1669 623 1 -2 40 -82 88 -178 143 -286 321 -553 522 -783 l59 -68
-254 -255 c-174 -175 -259 -252 -269 -248 -8 3 -43 11 -78 17 -225 38 -442
-135 -459 -365 -10 -135 37 -251 139 -342 123 -112 335 -127 480 -34 141 89
213 263 178 429 l-13 61 254 253 254 254 45 -40 c204 -184 526 -406 757 -523
l72 -36 -49 -107 c-27 -60 -195 -427 -373 -818 l-324 -710 -69 -13 c-141 -25
-248 -105 -307 -230 -29 -62 -32 -75 -32 -167 1 -81 5 -111 24 -158 32 -81
115 -168 199 -209 63 -31 73 -33 177 -33 104 0 114 2 176 32 125 61 214 192
226 330 8 103 -20 197 -88 293 -9 13 66 185 360 830 204 447 373 816 376 819
3 2 67 -16 143 -42 316 -107 777 -197 1013 -197 l49 0 0 -363 0 -362 -45 -24
c-60 -32 -130 -109 -163 -179 -24 -51 -27 -69 -27 -167 0 -104 2 -114 32 -176
40 -80 120 -160 200 -197 51 -24 70 -27 163 -27 97 0 110 2 172 32 253 119
313 447 120 646 -26 27 -66 60 -89 74 l-43 25 0 357 0 358 109 7 c267 16 596
78 856 160 43 14 81 23 83 21 3 -2 145 -381 318 -842 l313 -838 -30 -38 c-17
-20 -42 -63 -57 -95 -24 -50 -27 -69 -27 -162 0 -97 2 -110 32 -173 39 -82
110 -154 190 -194 53 -26 67 -28 173 -28 104 0 121 3 172 27 164 76 261 261
229 434 -31 169 -152 295 -314 328 l-62 13 -267 714 c-147 393 -290 774 -317
847 l-49 132 51 22 c264 111 665 370 900 581 l79 70 254 -254 c154 -154 252
-259 249 -267 -3 -8 -10 -44 -16 -81 -19 -129 32 -276 126 -358 22 -20 69 -50
105 -67 60 -29 73 -31 170 -31 99 0 110 2 172 33 86 42 153 109 192 192 29 60
31 73 31 175 0 98 -3 116 -27 167 -72 154 -245 252 -411 233 -32 -3 -69 -10
-81 -15 -20 -7 -50 19 -274 243 -139 139 -252 256 -252 260 0 4 28 40 63 80
166 191 319 411 448 642 l84 150 815 -371 c767 -350 815 -374 822 -400 3 -16
12 -55 18 -86 14 -69 71 -161 128 -206 22 -18 67 -45 99 -60 52 -24 70 -27
163 -27 97 0 110 2 172 32 85 40 151 106 191 191 30 63 32 74 32 177 0 104 -2
114 -32 176 -39 79 -111 150 -188 185 -146 67 -276 54 -431 -45 -19 -12 -98
22 -840 360 l-820 374 28 75 c116 308 202 729 221 1080 l2 45 360 3 360 2 24
-45 c32 -60 109 -130 179 -163 51 -24 68 -27 172 -27 107 0 119 2 175 29 79
39 149 110 188 194 30 62 32 75 32 172 0 97 -2 110 -32 172 -39 84 -109 155
-188 194 -56 27 -68 29 -175 29 -104 0 -121 -3 -172 -27 -70 -33 -147 -103
-179 -163 l-24 -45 -360 2 -360 3 -2 45 c-16 285 -75 617 -161 901 l-29 97
841 314 841 315 37 -29 c20 -15 63 -41 95 -56 52 -24 69 -27 168 -27 100 0
115 2 167 28 167 82 259 257 228 434 -56 323 -453 452 -683 221 -61 -61 -94
-123 -110 -206 l-11 -59 -845 -316 -846 -315 -70 141 c-95 192 -151 287 -262
451 -93 137 -257 349 -307 395 -14 14 -26 29 -26 35 0 6 113 124 252 263 224
224 254 250 274 243 12 -5 49 -12 81 -15 166 -19 339 79 411 233 24 51 27 69
27 167 0 102 -2 115 -31 175 -39 83 -106 150 -192 192 -62 31 -73 33 -172 33
-97 0 -110 -2 -170 -31 -36 -17 -83 -47 -105 -67 -94 -82 -145 -229 -126 -358
6 -37 13 -73 16 -81 3 -8 -95 -113 -249 -267 l-254 -254 -79 70 c-166 148
-458 349 -671 463 -67 36 -122 69 -122 73 0 5 167 374 371 821 l370 813 72 12
c133 22 249 109 305 229 24 51 27 69 27 167 0 103 -2 114 -32 177 -40 85 -106
151 -191 191 -62 30 -75 32 -173 32 -101 0 -108 -1 -181 -38 -86 -42 -143 -98
-183 -181 -63 -131 -47 -307 39 -420 l22 -31 -372 -815 c-205 -448 -374 -818
-376 -823 -2 -4 -55 11 -118 33 -305 109 -652 181 -992 206 l-98 7 0 357 0
358 43 25 c23 14 63 47 89 74 193 199 133 527 -120 646 -62 30 -75 32 -172 32
-93 0 -112 -3 -163 -27 -80 -37 -160 -117 -200 -197 -30 -62 -32 -72 -32 -176
0 -98 3 -116 27 -167 33 -70 103 -147 163 -179 l45 -24 0 -361 0 -361 -142
-12 c-269 -22 -543 -74 -784 -147 -65 -20 -120 -33 -121 -28 -2 5 -144 385
-316 844 l-313 835 35 45 c65 85 76 122 76 250 0 104 -3 121 -27 172 -37 80
-107 152 -186 190 -59 29 -77 33 -166 36 -79 2 -113 -2 -153 -16z m2617 -2608
c755 -79 1447 -411 1996 -959 250 -249 429 -490 582 -785 209 -402 312 -733
374 -1200 17 -126 17 -614 0 -740 -67 -504 -194 -891 -428 -1296 -498 -866
-1385 -1474 -2364 -1623 -588 -89 -1155 -30 -1707 178 -150 57 -452 205 -585
288 -223 138 -499 368 -680 567 -573 630 -879 1416 -879 2256 0 729 232 1423
670 2004 312 414 717 751 1176 979 432 216 848 322 1370 351 98 5 320 -4 475
-20z"/>
<path fill="#710A09" d="M6483 9505 c-57 -29 -92 -64 -126 -129 -31 -59 -31 -184 1 -243 51
-96 127 -145 238 -151 91 -5 155 21 218 88 101 108 97 280 -8 382 -56 55 -100
72 -191 76 -71 3 -86 0 -132 -23z"/>
<path fill="#710A09" d="M7017 8240 c-200 -51 -335 -258 -298 -458 24 -130 105 -238 220 -295
62 -30 73 -32 171 -32 97 0 110 2 170 31 86 41 153 108 193 192 30 62 32 75
32 172 0 95 -3 111 -29 168 -38 83 -132 171 -213 202 -65 25 -187 35 -246 20z"/>
<path fill="#710A09" d="M4820 7885 c-240 -49 -437 -188 -537 -381 -93 -178 -95 -370 -6 -553
29 -60 56 -96 132 -171 82 -82 110 -103 191 -143 131 -64 243 -90 395 -90 240
0 432 77 590 237 157 158 220 351 181 550 -55 280 -307 504 -626 555 -86 14
-240 12 -320 -4z"/>
<path fill="#710A09" d="M8528 7440 c-233 -39 -445 -199 -553 -415 -58 -117 -77 -202 -77
-340 0 -222 74 -396 234 -552 155 -151 346 -222 568 -210 122 6 208 30 325 90
100 52 233 179 293 282 140 240 140 541 0 780 -50 84 -180 217 -260 264 -161
94 -353 130 -530 101z"/>
<path fill="#710A09" d="M6545 5744 c-193 -30 -379 -161 -458 -324 -48 -99 -67 -176 -67 -277
0 -110 14 -172 62 -273 53 -111 159 -220 265 -273 234 -116 502 -79 689 95
136 127 197 266 197 448 0 91 -4 117 -30 190 -16 47 -46 111 -67 142 -78 119
-214 218 -346 253 -59 16 -196 26 -245 19z"/>
<path fill="#710A09" d="M4681 5529 c-25 -5 -78 -24 -119 -44 -182 -86 -295 -286 -278 -492
35 -429 551 -618 856 -313 199 198 201 506 5 706 -120 123 -294 177 -464 143z"/>
<path fill="#710A09" d="M8433 5386 c-104 -34 -185 -106 -231 -205 -23 -47 -27 -70 -27 -146
0 -77 4 -99 27 -147 37 -80 105 -149 181 -184 55 -26 73 -29 162 -29 120 0
171 21 250 100 182 181 131 476 -102 590 -69 33 -192 44 -260 21z"/>
</g>
<path fill="#E58A2E" d="M4463 12642 c-101 -36 -180 -108 -231 -212 -25 -50 -27 -65 -27 -170
0 -107 2 -119 29 -175 56 -114 181 -208 295 -222 l48 -5 314 -840 c173 -462
315 -844 317 -848 2 -5 -77 -49 -175 -99 -269 -136 -476 -271 -691 -450 -57
-47 -116 -96 -131 -108 l-27 -22 -253 253 -254 254 13 61 c35 166 -37 340
-178 429 -145 93 -357 78 -480 -34 -102 -91 -149 -207 -139 -342 17 -230 234
-403 459 -365 35 6 70 14 78 17 10 4 94 -73 269 -248 l254 -254 -19 -25 c-10
-13 -58 -71 -106 -128 -156 -187 -307 -411 -417 -620 l-57 -107 -819 374 -819
373 -12 68 c-36 217 -208 353 -430 341 -109 -6 -190 -44 -267 -128 -78 -84
-101 -147 -102 -275 0 -92 3 -105 32 -167 92 -195 315 -284 516 -208 27 10 63
30 82 44 18 14 37 26 42 26 4 0 376 -167 826 -372 622 -284 817 -377 813 -388
-2 -8 -23 -69 -46 -135 -103 -297 -169 -625 -195 -967 l-7 -88 -359 0 -358 0
-17 32 c-31 60 -121 144 -187 174 -56 26 -72 29 -172 29 -100 0 -116 -3 -173
-29 -81 -38 -171 -131 -203 -213 -33 -82 -33 -224 0 -306 32 -82 122 -175 203
-213 57 -26 73 -29 173 -29 100 0 116 3 172 29 66 30 156 114 187 174 l17 32
358 0 359 0 7 -87 c23 -307 76 -594 162 -871 14 -45 23 -85 20 -88 -2 -3 -382
-146 -843 -318 l-837 -313 -46 35 c-85 64 -123 76 -246 77 -103 0 -114 -2
-177 -32 -85 -40 -151 -106 -191 -191 -30 -63 -32 -74 -32 -177 0 -101 2 -115
29 -170 121 -247 445 -307 646 -119 58 54 110 151 118 220 4 40 9 48 37 59 64
27 1668 625 1669 623 1 -2 40 -82 88 -178 143 -286 321 -553 522 -783 l59 -68
-254 -255 c-174 -175 -259 -252 -269 -248 -8 3 -43 11 -78 17 -225 38 -442
-135 -459 -365 -10 -135 37 -251 139 -342 123 -112 335 -127 480 -34 141 89
213 263 178 429 l-13 61 254 253 254 254 45 -40 c204 -184 526 -406 757 -523
l72 -36 -49 -107 c-27 -60 -195 -427 -373 -818 l-324 -710 -69 -13 c-141 -25
-248 -105 -307 -230 -29 -62 -32 -75 -32 -167 1 -81 5 -111 24 -158 32 -81
115 -168 199 -209 63 -31 73 -33 177 -33 104 0 114 2 176 32 125 61 214 192
226 330 8 103 -20 197 -88 293 -9 13 66 185 360 830 204 447 373 816 376 819
3 2 67 -16 143 -42 316 -107 777 -197 1013 -197 l49 0 0 -363 0 -362 -45 -24
c-60 -32 -130 -109 -163 -179 -24 -51 -27 -69 -27 -167 0 -104 2 -114 32 -176
40 -80 120 -160 200 -197 51 -24 70 -27 163 -27 97 0 110 2 172 32 253 119
313 447 120 646 -26 27 -66 60 -89 74 l-43 25 0 357 0 358 109 7 c267 16 596
78 856 160 43 14 81 23 83 21 3 -2 145 -381 318 -842 l313 -838 -30 -38 c-17
-20 -42 -63 -57 -95 -24 -50 -27 -69 -27 -162 0 -97 2 -110 32 -173 39 -82
110 -154 190 -194 53 -26 67 -28 173 -28 104 0 121 3 172 27 164 76 261 261
229 434 -31 169 -152 295 -314 328 l-62 13 -267 714 c-147 393 -290 774 -317
847 l-49 132 51 22 c264 111 665 370 900 581 l79 70 254 -254 c154 -154 252
-259 249 -267 -3 -8 -10 -44 -16 -81 -19 -129 32 -276 126 -358 22 -20 69 -50
105 -67 60 -29 73 -31 170 -31 99 0 110 2 172 33 86 42 153 109 192 192 29 60
31 73 31 175 0 98 -3 116 -27 167 -72 154 -245 252 -411 233 -32 -3 -69 -10
-81 -15 -20 -7 -50 19 -274 243 -139 139 -252 256 -252 260 0 4 28 40 63 80
166 191 319 411 448 642 l84 150 815 -371 c767 -350 815 -374 822 -400 3 -16
12 -55 18 -86 14 -69 71 -161 128 -206 22 -18 67 -45 99 -60 52 -24 70 -27
163 -27 97 0 110 2 172 32 85 40 151 106 191 191 30 63 32 74 32 177 0 104 -2
114 -32 176 -39 79 -111 150 -188 185 -146 67 -276 54 -431 -45 -19 -12 -98
22 -840 360 l-820 374 28 75 c116 308 202 729 221 1080 l2 45 360 3 360 2 24
-45 c32 -60 109 -130 179 -163 51 -24 68 -27 172 -27 107 0 119 2 175 29 79
39 149 110 188 194 30 62 32 75 32 172 0 97 -2 110 -32 172 -39 84 -109 155
-188 194 -56 27 -68 29 -175 29 -104 0 -121 -3 -172 -27 -70 -33 -147 -103
-179 -163 l-24 -45 -360 2 -360 3 -2 45 c-16 285 -75 617 -161 901 l-29 97
841 314 841 315 37 -29 c20 -15 63 -41 95 -56 52 -24 69 -27 168 -27 100 0
115 2 167 28 167 82 259 257 228 434 -56 323 -453 452 -683 221 -61 -61 -94
-123 -110 -206 l-11 -59 -845 -316 -846 -315 -70 141 c-95 192 -151 287 -262
451 -93 137 -257 349 -307 395 -14 14 -26 29 -26 35 0 6 113 124 252 263 224
224 254 250 274 243 12 -5 49 -12 81 -15 166 -19 339 79 411 233 24 51 27 69
27 167 0 102 -2 115 -31 175 -39 83 -106 150 -192 192 -62 31 -73 33 -172 33
-97 0 -110 -2 -170 -31 -36 -17 -83 -47 -105 -67 -94 -82 -145 -229 -126 -358
6 -37 13 -73 16 -81 3 -8 -95 -113 -249 -267 l-254 -254 -79 70 c-166 148
-458 349 -671 463 -67 36 -122 69 -122 73 0 5 167 374 371 821 l370 813 72 12
c133 22 249 109 305 229 24 51 27 69 27 167 0 103 -2 114 -32 177 -40 85 -106
151 -191 191 -62 30 -75 32 -173 32 -101 0 -108 -1 -181 -38 -86 -42 -143 -98
-183 -181 -63 -131 -47 -307 39 -420 l22 -31 -372 -815 c-205 -448 -374 -818
-376 -823 -2 -4 -55 11 -118 33 -305 109 -652 181 -992 206 l-98 7 0 357 0
358 43 25 c23 14 63 47 89 74 193 199 133 527 -120 646 -62 30 -75 32 -172 32
-93 0 -112 -3 -163 -27 -80 -37 -160 -117 -200 -197 -30 -62 -32 -72 -32 -176
0 -98 3 -116 27 -167 33 -70 103 -147 163 -179 l45 -24 0 -361 0 -361 -142
-12 c-269 -22 -543 -74 -784 -147 -65 -20 -120 -33 -121 -28 -2 5 -144 385
-316 844 l-313 835 35 45 c65 85 76 122 76 250 0 104 -3 121 -27 172 -37 80
-107 152 -186 190 -59 29 -77 33 -166 36 -79 2 -113 -2 -153 -16z m2617 -2608
c755 -79 1447 -411 1996 -959 250 -249 429 -490 582 -785 209 -402 312 -733
374 -1200 17 -126 17 -614 0 -740 -67 -504 -194 -891 -428 -1296 -498 -866
-1385 -1474 -2364 -1623 -588 -89 -1155 -30 -1707 178 -150 57 -452 205 -585
288 -223 138 -499 368 -680 567 -573 630 -879 1416 -879 2256 0 729 232 1423
670 2004 312 414 717 751 1176 979 432 216 848 322 1370 351 98 5 320 -4 475
-20z"/>
</svg>
